<svg width="45" height="45" viewBox="0 0 45 45" fill="none" xmlns="http://www.w3.org/2000/svg">
<circle cx="22.3776" cy="22.3776" r="21.8776" stroke="#004570"/>
<path fill-rule="evenodd" clip-rule="evenodd" d="M32.6898 16.653H30.1075C29.4509 16.653 29.1482 16.9916 28.984 17.3649C28.984 17.3649 27.6709 20.4853 25.8105 22.5122C25.2086 23.0989 24.9351 23.2857 24.6066 23.2857C24.4426 23.2857 24.205 23.0989 24.205 22.5656V17.5783C24.205 16.9382 24.0143 16.653 23.4672 16.653H19.4093C18.9991 16.653 18.7523 16.9501 18.7523 17.2317C18.7523 17.8385 19.6823 17.9784 19.7782 19.6852V23.3922C19.7782 24.2051 19.6277 24.3524 19.2993 24.3524C18.4239 24.3524 16.2944 21.2183 15.0315 17.6317C14.784 16.9346 14.5357 16.653 13.8757 16.653H11.2934C10.5556 16.653 10.408 16.9916 10.408 17.3649C10.408 18.0316 11.2834 21.3387 14.4842 25.7127C16.6182 28.6995 19.6247 30.3187 22.3605 30.3187C24.002 30.3187 24.205 29.9591 24.205 29.3396V27.0821C24.205 26.3628 24.3605 26.2194 24.8803 26.2194C25.2632 26.2194 25.9199 26.406 27.4519 27.8461C29.2028 29.5529 29.4916 30.3187 30.4764 30.3187H33.0587C33.7965 30.3187 34.1654 29.9591 33.9526 29.2494C33.7198 28.542 32.8837 27.5158 31.7746 26.2992C31.1727 25.6058 30.2698 24.8593 29.9963 24.4858C29.6132 24.0059 29.7227 23.7923 29.9963 23.3656C29.9963 23.3656 33.1425 19.0452 33.4708 17.5783C33.635 17.045 33.4708 16.653 32.6898 16.653Z" fill="#004570"/>
</svg>
